<svg xmlns="http://www.w3.org/2000/svg" viewBox="0 0 350 350"><filter id="b"><feGaussianBlur stdDeviation="12" /></filter><path fill="#dbc2a5" d="M0 0h350v350H0z"/><g filter="url(#b)" transform="translate(.7 .7) scale(1.36719)" fill-opacity=".5"><ellipse fill="#710700" rx="1" ry="1" transform="matrix(15.25664 -19.05722 66.56427 53.28938 132.4 140.4)"/><ellipse fill="#c26800" cx="112" cy="158" rx="56" ry="56"/><ellipse fill="#55603f" cx="236" cy="28" rx="43" ry="43"/><ellipse fill="#fff" rx="1" ry="1" transform="rotate(-57.5 172.4 -120.4) scale(36.0633 159.32177)"/><ellipse fill="#fff" rx="1" ry="1" transform="matrix(30.60002 -84.07286 25.6175 9.324 25.5 110)"/><ellipse fill="#db7d00" rx="1" ry="1" transform="matrix(12.47226 -11.92611 29.16233 30.4978 200.5 163)"/><ellipse fill="#fff" rx="1" ry="1" transform="matrix(-100.84956 17.5046 -5.56887 -32.08403 193.7 236.2)"/><ellipse fill="#faf7ee" rx="1" ry="1" transform="matrix(69.7539 56.2843 -22.53403 27.92673 33 217.5)"/></g></svg>