<svg xmlns="http://www.w3.org/2000/svg" viewBox="0 0 350 350"><filter id="b"><feGaussianBlur stdDeviation="12" /></filter><path fill="#dec9b9" d="M0 0h350v350H0z"/><g filter="url(#b)" transform="translate(.7 .7) scale(1.36719)" fill-opacity=".5"><ellipse fill="#7a210c" rx="1" ry="1" transform="rotate(86.2 -2.2 133.5) scale(87.10042 39.8897)"/><ellipse fill="#635425" cx="225" cy="18" rx="38" ry="38"/><ellipse fill="#fff" rx="1" ry="1" transform="matrix(-58.49747 15.96958 -25.10025 -91.94363 47.7 144.4)"/><ellipse fill="#fff" rx="1" ry="1" transform="matrix(49.12363 -19.50788 35.3431 88.99895 233.6 152.4)"/><path fill="#a54118" d="M162 189L79 51l99-1z"/><ellipse fill="#bc5200" rx="1" ry="1" transform="matrix(-8.81674 -4.39907 8.46356 -16.9629 190.6 204.7)"/><ellipse fill="#fff" rx="1" ry="1" transform="rotate(-1.9 7839 -6198.2) scale(68.82408 35.12716)"/><ellipse fill="#e7a62d" rx="1" ry="1" transform="matrix(41.83118 -1.60083 .93904 24.53796 125.6 61)"/></g></svg>