<svg xmlns="http://www.w3.org/2000/svg" viewBox="0 0 350 350"><filter id="b"><feGaussianBlur stdDeviation="12" /></filter><path fill="#d2b796" d="M0 0h350v350H0z"/><g filter="url(#b)" transform="translate(.7 .7) scale(1.36719)" fill-opacity=".5"><ellipse fill="#772b00" rx="1" ry="1" transform="matrix(85.62966 -9.58074 6.28 56.12867 136 146)"/><ellipse fill="#fff" rx="1" ry="1" transform="rotate(-6.6 1259.7 -2027) scale(33.96692 255)"/><ellipse fill="#fff" cx="22" cy="139" rx="24" ry="98"/><ellipse fill="#fffff9" rx="1" ry="1" transform="matrix(2.5652 38.91338 -127.36522 8.396 159.8 254)"/><ellipse fill="#5c3105" rx="1" ry="1" transform="matrix(45.67723 -42.48017 18.81392 20.22986 176.8 167.2)"/><ellipse fill="#6d5c25" cx="31" cy="14" rx="38" ry="27"/><ellipse fill="#a96000" rx="1" ry="1" transform="matrix(-31.36358 -5.42322 2.28522 -13.2159 162.7 77.9)"/><ellipse fill="#fff2db" rx="1" ry="1" transform="matrix(-71.53846 -12.74294 5.07905 -28.51364 145.5 35.5)"/></g></svg>