<svg xmlns="http://www.w3.org/2000/svg" viewBox="0 0 350 350"><filter id="c"><feGaussianBlur stdDeviation="55" /></filter><path fill="#e4d9c5" d="M0 0h350v350H0z"/><g filter='url(#c)' fill-opacity='.5'><ellipse fill="#824e0a" fill-opacity=".5" rx="1" ry="1" transform="rotate(-81 226 -2.5) scale(59.20793 118.74897)"/><ellipse fill="#86873f" fill-opacity=".5" rx="1" ry="1" transform="matrix(18.70868 -.20614 .94342 85.62257 15.6 67.4)"/><path fill="#fff" fill-opacity=".5" d="M7.5 371.2l-28.7-135.4 392.4 94.4zM272.8.7h77.9v246h-78z"/><ellipse fill="#400700" fill-opacity=".5" rx="1" ry="1" transform="rotate(80.5 -56.6 216.7) scale(16.88777 56.4554)"/><ellipse fill="#f3b521" fill-opacity=".5" rx="1" ry="1" transform="matrix(-23.58275 -39.69856 48.81048 -28.99565 172.7 175.9)"/><ellipse fill="#fff" fill-opacity=".5" rx="1" ry="1" transform="matrix(238.50074 -149.77348 19.62613 31.25284 149.6 105.7)"/><ellipse fill="#fdffff" fill-opacity=".5" rx="1" ry="1" transform="matrix(338.03938 -38.42124 4.38916 38.6169 283 309.7)"/></g></svg>