<svg xmlns="http://www.w3.org/2000/svg" viewBox="0 0 350 350"><filter id="b"><feGaussianBlur stdDeviation="12" /></filter><path fill="#d5b18b" d="M0 0h350v350H0z"/><g filter="url(#b)" transform="translate(.7 .7) scale(1.36719)" fill-opacity=".5"><ellipse fill="#aa5100" rx="1" ry="1" transform="matrix(5.7719 57.39709 -110.6723 11.1293 153.3 152.5)"/><ellipse fill="#fff9f7" rx="1" ry="1" transform="matrix(-180.85357 179.76926 -40.3635 -40.60696 59.7 68.3)"/><ellipse fill="#4b0000" rx="1" ry="1" transform="matrix(1.3544 14.4976 -55.6057 5.1948 97.2 150.8)"/><ellipse fill="#fffffa" cx="203" cy="236" rx="255" ry="24"/><ellipse fill="#c9670d" rx="1" ry="1" transform="matrix(-25.05055 16.97529 -18.19345 -26.8482 69.6 136.2)"/><ellipse fill="#621400" rx="1" ry="1" transform="matrix(36.48491 -10.94193 3.34657 11.15883 63.3 199.8)"/><ellipse fill="#5a5d42" rx="1" ry="1" transform="matrix(39.83475 -9.02474 5.35443 23.63419 232.4 22.5)"/><ellipse fill="#c45b00" rx="1" ry="1" transform="matrix(-32.93928 14.98919 -7.41158 -16.28721 202.5 94)"/></g></svg>