<svg xmlns="http://www.w3.org/2000/svg" viewBox="0 0 350 350"><filter id="b"><feGaussianBlur stdDeviation="12" /></filter><path fill="#dcc4ab" d="M0 0h350v350H0z"/><g filter="url(#b)" transform="translate(.7 .7) scale(1.36719)" fill-opacity=".5"><ellipse fill="#6f1600" rx="1" ry="1" transform="matrix(-87.69833 -16.60373 9.36212 -49.44927 143.3 163.4)"/><ellipse fill="#fff" rx="1" ry="1" transform="matrix(-43.56725 -46.0027 65.20696 -61.7548 23.2 91.4)"/><ellipse fill="#fffcf5" cx="212" cy="48" rx="86" ry="85"/><ellipse fill="#d48c0f" cx="73" cy="153" rx="38" ry="38"/><ellipse fill="#c37503" rx="1" ry="1" transform="matrix(-38.31787 -38.7805 19.28406 -19.05401 138.9 128.5)"/><ellipse fill="#561a00" rx="1" ry="1" transform="matrix(-21.516 -11.18744 14.83396 -28.5291 111.6 160)"/><ellipse fill="#fffdf5" cx="225" cy="244" rx="184" ry="29"/><ellipse fill="#512b05" rx="1" ry="1" transform="matrix(-42.37118 -9.17137 3.48378 -16.09485 174.7 197)"/></g></svg>