<svg xmlns="http://www.w3.org/2000/svg" viewBox="0 0 350 350"><filter id="c"><feGaussianBlur stdDeviation="55" /></filter><path fill="#ecdcd4" d="M0 0h350v350H0z"/><g filter='url(#c)' fill-opacity='.5'><ellipse fill="#c70000" fill-opacity=".5" rx="1" ry="1" transform="matrix(.2265 -29.65533 88.17737 .67346 175.7 194.5)"/><ellipse fill="#78868c" fill-opacity=".5" rx="1" ry="1" transform="matrix(-2.58976 25.06057 -64.14837 -6.62909 183 266)"/><ellipse fill="#fff" fill-opacity=".5" rx="1" ry="1" transform="rotate(11.2 -1150 308.9) scale(51.65266 166.14698)"/><ellipse fill="#fff" fill-opacity=".5" rx="1" ry="1" transform="matrix(59.14553 -8.20071 18.44192 133.00756 320.6 223.6)"/><ellipse fill="#d71f0e" fill-opacity=".5" rx="1" ry="1" transform="matrix(-.86595 -19.41018 70.38505 -3.14012 195 202.6)"/><ellipse fill="#fff" fill-opacity=".5" rx="1" ry="1" transform="matrix(131.5451 -33.28603 11.08006 43.78796 120.1 128)"/><ellipse fill="#e3be92" fill-opacity=".5" rx="1" ry="1" transform="matrix(2.1925 -32.40137 163.79102 11.0832 31.4 27.2)"/><ellipse fill="#fdffff" fill-opacity=".5" rx="1" ry="1" transform="matrix(158.56434 81.84116 -10.88412 21.0876 243.3 155.4)"/></g></svg>