<svg xmlns="http://www.w3.org/2000/svg" viewBox="0 0 350 350"><filter id="b"><feGaussianBlur stdDeviation="12" /></filter><path fill="#dcbfab" d="M0 0h350v350H0z"/><g filter="url(#b)" transform="translate(.7 .7) scale(1.36719)" fill-opacity=".5"><ellipse fill="#780000" rx="1" ry="1" transform="matrix(15.33676 36.48472 -52.85516 22.21826 140.4 192.1)"/><ellipse fill="#b65800" rx="1" ry="1" transform="matrix(-.49143 28.15395 -80.97702 -1.41346 125.8 85.7)"/><ellipse fill="#fff" rx="1" ry="1" transform="matrix(8.88492 -111.37736 45.03301 3.59243 236.2 163.9)"/><path fill="#fff" d="M106.3 136.8L27.5 241.4l-87.8-66.2L18.5 70.6z"/><ellipse fill="#870000" rx="1" ry="1" transform="rotate(81.5 -51 186.3) scale(19.85876 48.95634)"/><ellipse fill="#fffcc0" cx="83" cy="34" rx="69" ry="40"/><ellipse fill="#a4939c" rx="1" ry="1" transform="matrix(34.15645 1.69925 -1.92775 38.7495 162.3 148.2)"/><ellipse fill="#fff" cx="229" cy="129" rx="40" ry="40"/></g></svg>