<svg xmlns="http://www.w3.org/2000/svg" viewBox="0 0 350 350"><filter id="b"><feGaussianBlur stdDeviation="12" /></filter><path fill="#e1c9ab" d="M0 0h350v350H0z"/><g filter="url(#b)" transform="translate(.7 .7) scale(1.36719)" fill-opacity=".5"><ellipse fill="#ac5100" rx="1" ry="1" transform="matrix(-11.51094 -58.15948 87.3321 -17.2848 127.8 158.1)"/><path fill="#97470d" d="M127 208l109 2L87 76z"/><ellipse fill="#fff" rx="1" ry="1" transform="matrix(-25.97919 -21.72514 127.29074 -152.21583 86.5 63.3)"/><ellipse fill="#fff" rx="1" ry="1" transform="matrix(47.39718 -24.59338 117.44509 226.3441 222.4 82.2)"/><ellipse fill="#e99a08" rx="1" ry="1" transform="matrix(34.50904 -13.73282 7.41221 18.62607 190.7 129.8)"/><path fill="#526565" d="M9 74L-6-16l42 81z"/><ellipse fill="#f2f0eb" cx="124" cy="232" rx="148" ry="26"/><path fill="#2b0000" d="M46.7 188.1l39.6-10.6 5 18.4-39.6 10.6z"/></g></svg>