<svg xmlns="http://www.w3.org/2000/svg" viewBox="0 0 350 350"><filter id="b"><feGaussianBlur stdDeviation="12" /></filter><path fill="#e3e2de" d="M0 0h350v350H0z"/><g filter="url(#b)" transform="translate(.7 .7) scale(1.36719)" fill-opacity=".5"><ellipse fill="#524807" rx="1" ry="1" transform="matrix(4.05354 41.42947 -61.55169 6.02234 24.9 14.8)"/><ellipse fill="#fff" cx="214" cy="146" rx="66" ry="100"/><ellipse fill="#dbb89b" rx="1" ry="1" transform="matrix(84.76673 -19.88186 12.87647 54.8991 153.8 .7)"/><ellipse fill="#fff" cx="33" cy="168" rx="69" ry="69"/><path fill="#7eaed9" d="M101.2 238.4l-3.4-97 51-1.8 3.4 97z"/><path fill="#2b7ac5" d="M108 28l48 81-20-77z"/><ellipse fill="#1c5fab" rx="1" ry="1" transform="matrix(-5.5689 -.94304 3.83022 -22.61835 106.5 86.9)"/><path fill="#215ea5" d="M139.8 121.7l8.6 17.8L154 95l-9-21z"/></g></svg>