<svg xmlns="http://www.w3.org/2000/svg" viewBox="0 0 350 350"><filter id="b"><feGaussianBlur stdDeviation="12" /></filter><path fill="#e1caaf" d="M0 0h350v350H0z"/><g filter="url(#b)" transform="translate(.7 .7) scale(1.36719)" fill-opacity=".5"><ellipse fill="#a33e00" rx="1" ry="1" transform="rotate(-23.2 424.2 -310.3) scale(59.45096 47.50935)"/><ellipse fill="#741500" rx="1" ry="1" transform="matrix(28.58246 -1.94856 .95573 14.01916 52.4 153.8)"/><ellipse fill="#fff" cx="79" cy="78" rx="53" ry="53"/><ellipse fill="#813d00" rx="1" ry="1" transform="matrix(43.8387 19.75283 -9.3805 20.81875 180.6 166.7)"/><path fill="#fff" d="M206 144l35-160 30 208z"/><path fill="#432b18" d="M107 203l-66-12 137-34z"/><ellipse fill="#8b6531" rx="1" ry="1" transform="rotate(-124.6 12.1 -2.2) scale(52.38091 21.95471)"/><ellipse fill="#fffffe" rx="1" ry="1" transform="matrix(-11.1912 -30.22912 191.92283 -71.0523 68.8 93)"/></g></svg>