<svg xmlns="http://www.w3.org/2000/svg" viewBox="0 0 350 350"><filter id="b"><feGaussianBlur stdDeviation="12" /></filter><path fill="#dcc8ac" d="M0 0h350v350H0z"/><g filter="url(#b)" transform="translate(.7 .7) scale(1.36719)" fill-opacity=".5"><path fill="#494d20" d="M55.7-53.7l45.8 70.4-103.2 67-45.8-70.4z"/><ellipse fill="#c0801f" rx="1" ry="1" transform="rotate(-154.8 87.7 63.8) scale(66.01473 51.57667)"/><ellipse fill="#fff" cx="218" cy="93" rx="83" ry="37"/><ellipse fill="#fff" rx="1" ry="1" transform="matrix(13.96993 -61.0901 39.3779 9.00484 18.7 162)"/><ellipse fill="#fff" cx="252" cy="215" rx="58" ry="58"/><path fill="#c26900" d="M164 139h70v30h-70z"/><ellipse fill="#d19316" rx="1" ry="1" transform="matrix(3.91283 -14.78233 77.3637 20.47791 109.1 111.6)"/><ellipse fill="#fffbd8" rx="1" ry="1" transform="matrix(-4.39371 14.72501 -54.65531 -16.3083 98.7 148.3)"/></g></svg>