<svg xmlns="http://www.w3.org/2000/svg" viewBox="0 0 350 350"><filter id="b"><feGaussianBlur stdDeviation="12" /></filter><path fill="#efe4c1" d="M0 0h350v350H0z"/><g filter="url(#b)" transform="translate(.7 .7) scale(1.36719)" fill-opacity=".5"><ellipse fill="#d49b00" cx="129" cy="137" rx="38" ry="104"/><ellipse fill="#fff" rx="1" ry="1" transform="matrix(-18.61706 107.58001 -43.57607 -7.54098 41.3 137.8)"/><ellipse fill="#fff" rx="1" ry="1" transform="matrix(14.75434 131.70384 -45.63613 5.11246 218 121.2)"/><path fill="#200019" d="M87.3 63.9l9.3-14.5 81.2 7.6-23.6 11.8z"/><ellipse fill="#b3b041" rx="1" ry="1" transform="rotate(-52.7 13.7 -21.7) scale(97.47395 23.87672)"/><ellipse fill="#9c5c21" rx="1" ry="1" transform="matrix(5.33652 -16.63026 37.6287 12.07475 135.6 215.7)"/><path fill="#fffc4c" d="M85 69h88v50H85z"/><path fill="#ffffe1" d="M69 0h176v51H69z"/></g></svg>