<svg xmlns="http://www.w3.org/2000/svg" viewBox="0 0 350 350"><filter id="b"><feGaussianBlur stdDeviation="12" /></filter><path fill="#e3dbd3" d="M0 0h350v350H0z"/><g filter="url(#b)" transform="translate(.7 .7) scale(1.36719)" fill-opacity=".5"><ellipse rx="1" ry="1" transform="matrix(-.75065 21.49568 -67.59589 -2.3605 128.6 141.4)"/><ellipse fill="#767d82" rx="1" ry="1" transform="matrix(44.60734 3.16987 -1.07712 15.15753 134.4 195.4)"/><ellipse fill="#fff" cx="33" cy="162" rx="34" ry="117"/><ellipse fill="#3c1311" cx="131" cy="140" rx="59" ry="22"/><ellipse fill="#fff" rx="1" ry="1" transform="matrix(10.89646 115.27254 -46.52612 4.39801 239.6 178.5)"/><ellipse fill="#fff" rx="1" ry="1" transform="matrix(-103.89333 37.60886 -10.83653 -29.93559 101.8 88.7)"/><ellipse fill="#eec399" rx="1" ry="1" transform="matrix(127.20665 -.37082 .07835 26.87632 21.8 24.7)"/><path fill="#fffefd" d="M-9 125l209 146-203-48z"/></g></svg>