<svg xmlns="http://www.w3.org/2000/svg" viewBox="0 0 350 350"><filter id="b"><feGaussianBlur stdDeviation="12" /></filter><path fill="#ece4dc" d="M0 0h350v350H0z"/><g filter="url(#b)" transform="translate(.7 .7) scale(1.36719)" fill-opacity=".5"><ellipse fill="#a56f55" rx="1" ry="1" transform="matrix(-.7275 -41.46531 61.23634 -1.07439 125.8 118.2)"/><ellipse fill="#70757f" rx="1" ry="1" transform="matrix(.42653 10.74121 -46.5882 1.85 135.1 216.7)"/><ellipse fill="#fff" rx="1" ry="1" transform="matrix(18.97438 -79.8004 43.44795 10.33075 228 150.7)"/><ellipse fill="#fff" cx="32" cy="142" rx="35" ry="101"/><ellipse fill="#9da7ab" cx="132" cy="170" rx="22" ry="41"/><ellipse fill="#fff" rx="1" ry="1" transform="matrix(-36.22907 -12.3125 14.85021 -43.69617 76.8 56.6)"/><ellipse fill="#fff" cx="185" cy="78" rx="28" ry="28"/><path fill="#973102" d="M67.5 144.3l19.9-49.1 11 4.5-19.8 49.1z"/></g></svg>