<svg xmlns="http://www.w3.org/2000/svg" viewBox="0 0 350 350"><filter id="b"><feGaussianBlur stdDeviation="12" /></filter><path fill="#ddcfd2" d="M0 0h350v350H0z"/><g filter="url(#b)" transform="translate(.7 .7) scale(1.36719)" fill-opacity=".5"><path fill="#260034" d="M177 61l10 158-141 2z"/><ellipse fill="#fff" rx="1" ry="1" transform="matrix(36.04782 -4.23465 10.53353 89.66768 214.7 158.8)"/><ellipse fill="#fff" rx="1" ry="1" transform="rotate(-75 106.8 60.5) scale(178.71286 50.71437)"/><ellipse fill="#4f1723" rx="1" ry="1" transform="matrix(21.1663 -15.54819 10.66364 14.5168 169.4 209.4)"/><ellipse fill="#f9d9e6" rx="1" ry="1" transform="rotate(161.6 37.2 111.3) scale(13.98273 116.70562)"/><ellipse fill="#c66e8b" cx="138" cy="89" rx="48" ry="48"/><ellipse fill="#045ea5" rx="1" ry="1" transform="rotate(147.3 43 103.9) scale(32.24063 25.16723)"/><path fill="#000100" d="M83.8 225.3l-23.2-11.8 13.6-26.8 23.2 11.8z"/></g></svg>