<svg xmlns="http://www.w3.org/2000/svg" viewBox="0 0 350 350"><filter id="b"><feGaussianBlur stdDeviation="12" /></filter><path fill="#e9e2d5" d="M0 0h350v350H0z"/><g filter="url(#b)" transform="translate(.7 .7) scale(1.36719)" fill-opacity=".5"><ellipse fill="#1a0019" rx="1" ry="1" transform="matrix(-28.22815 -.6091 1.5419 -71.4583 129 128.3)"/><ellipse fill="#aa9718" rx="1" ry="1" transform="matrix(25.14143 18.6278 -32.20968 43.47254 17.7 35.2)"/><ellipse fill="#a61904" cx="129" cy="167" rx="28" ry="32"/><ellipse fill="#fff" cx="122" cy="40" rx="22" ry="52"/><ellipse fill="#fff" rx="1" ry="1" transform="rotate(86.7 26 173.9) scale(87.56255 49.5246)"/><path fill="#001d53" d="M158.8 73l-16.2 93.4L132 89.8l13.5-23.3z"/><ellipse fill="#fff" rx="1" ry="1" transform="matrix(-60.64979 -26.11993 32.10426 -74.54527 35.9 138.4)"/><path fill="#449ed7" d="M103 67h35v57h-35z"/></g></svg>