<svg xmlns="http://www.w3.org/2000/svg" viewBox="0 0 350 350"><filter id="b"><feGaussianBlur stdDeviation="12" /></filter><path fill="#e7dad2" d="M0 0h350v350H0z"/><g filter="url(#b)" transform="translate(.7 .7) scale(1.36719)" fill-opacity=".5"><ellipse fill="#5a0000" rx="1" ry="1" transform="rotate(-88.4 136.6 3.9) scale(24.60894 61.77864)"/><ellipse fill="#79858a" rx="1" ry="1" transform="matrix(1.4343 -17.82664 44.5076 3.581 135.4 194.3)"/><ellipse fill="#fff" cx="29" cy="189" rx="40" ry="134"/><ellipse fill="#fff" rx="1" ry="1" transform="matrix(-6.0689 -105.25786 37.45224 -2.1594 230.4 170)"/><ellipse fill="#8d0d00" cx="128" cy="143" rx="66" ry="19"/><ellipse fill="#fff" rx="1" ry="1" transform="matrix(8.48666 33.87475 -96.83574 24.2603 81.8 89.4)"/><ellipse fill="#e8c094" rx="1" ry="1" transform="rotate(-174.7 4.4 7.8) scale(137.51301 25.26208)"/><ellipse fill="#fff" rx="1" ry="1" transform="matrix(-8.28986 17.3483 -89.97439 -42.99417 198 120)"/></g></svg>