<svg xmlns="http://www.w3.org/2000/svg" viewBox="0 0 350 350"><filter id="b"><feGaussianBlur stdDeviation="12" /></filter><path fill="#c7ae90" d="M0 0h350v350H0z"/><g filter="url(#b)" transform="translate(.7 .7) scale(1.36719)" fill-opacity=".5"><ellipse fill="#572300" cx="142" cy="135" rx="84" ry="84"/><ellipse fill="#fff" cx="242" cy="108" rx="22" ry="254"/><ellipse fill="#fff" rx="1" ry="1" transform="matrix(108.62612 -162.55954 41.76504 27.90838 44.4 48.8)"/><ellipse fill="#0c0000" rx="1" ry="1" transform="matrix(5.96027 -26.72944 32.12575 7.16357 181 91)"/><path fill="#fffffe" d="M40.8 308L-64.9 151.1l58-39.1L99 268.8z"/><ellipse fill="#e4ac30" rx="1" ry="1" transform="matrix(-62.16837 -32.63913 19.03 -36.2468 94 162.4)"/><ellipse fill="#fff5ef" rx="1" ry="1" transform="matrix(-75.1734 6.76066 -2.79873 -31.11973 153.3 24.4)"/><ellipse fill="#fffffe" rx="1" ry="1" transform="matrix(-3.99813 -22.86704 122.67957 -21.44961 174 247)"/></g></svg>