<svg xmlns="http://www.w3.org/2000/svg" viewBox="0 0 350 350"><filter id="b"><feGaussianBlur stdDeviation="12" /></filter><path fill="#e3d2c9" d="M0 0h350v350H0z"/><g filter="url(#b)" transform="translate(.7 .7) scale(1.36719)" fill-opacity=".5"><path fill="#600" d="M175.4 224.6l-97.7-8.5 7-78.7 97.6 8.5z"/><ellipse fill="#6f513c" rx="1" ry="1" transform="matrix(29.67704 48.61574 -29.68581 18.12144 146.7 98)"/><ellipse fill="#fff" cx="43" cy="180" rx="45" ry="163"/><path fill="#98000c" d="M78.7 209l11.1-44.7 83.5 20.8-11.1 44.6z"/><ellipse fill="#fff" rx="1" ry="1" transform="matrix(-5.17147 -128.75838 38.56537 -1.54895 223 173.4)"/><ellipse fill="#b8500f" rx="1" ry="1" transform="matrix(-32.76668 -1.21154 .65191 -17.6313 106.2 67.4)"/><ellipse fill="#fffff2" rx="1" ry="1" transform="matrix(5.10003 -32.66162 84.3447 13.17022 112.9 15.5)"/><ellipse fill="#f4f7fe" rx="1" ry="1" transform="matrix(48.62764 -43.18523 16.54483 18.62989 88 132.9)"/></g></svg>