<svg xmlns="http://www.w3.org/2000/svg" viewBox="0 0 350 350"><filter id="b"><feGaussianBlur stdDeviation="12" /></filter><path fill="#e1c8ae" d="M0 0h350v350H0z"/><g filter="url(#b)" transform="translate(.7 .7) scale(1.36719)" fill-opacity=".5"><ellipse fill="#9d4000" rx="1" ry="1" transform="rotate(81.5 -23.9 150.6) scale(53.80671 104.35745)"/><ellipse fill="#fff" cx="77" cy="51" rx="65" ry="65"/><ellipse rx="1" ry="1" transform="matrix(3.86316 11.81936 -43.65652 14.26915 131.6 182.6)"/><ellipse fill="#fff" cx="222" cy="24" rx="81" ry="81"/><path fill="#521500" d="M235 149l-44 54 43 2z"/><ellipse fill="#511304" rx="1" ry="1" transform="matrix(-9.6451 -6.24243 30.87087 -47.69824 161.1 142.8)"/><ellipse fill="#d46d16" rx="1" ry="1" transform="matrix(-44.76826 -6.46031 2.74225 -19.00307 161 103.1)"/><ellipse fill="#fff" rx="1" ry="1" transform="matrix(25.41569 59.87561 -20.8971 8.8703 244.5 120.8)"/></g></svg>