<svg xmlns="http://www.w3.org/2000/svg" viewBox="0 0 350 350"><filter id="b"><feGaussianBlur stdDeviation="12" /></filter><path fill="#e5d4c9" d="M0 0h350v350H0z"/><g filter="url(#b)" transform="translate(.7 .7) scale(1.36719)" fill-opacity=".5"><ellipse fill="#640000" rx="1" ry="1" transform="matrix(-22.74867 30.6311 -27.44513 -20.38255 129.8 161.1)"/><ellipse fill="#654e1d" rx="1" ry="1" transform="matrix(49.32567 -15.34085 10.85332 34.89686 235 19.7)"/><ellipse fill="#8a795e" rx="1" ry="1" transform="matrix(24.5946 -2.65464 4.76805 44.1748 143.3 109.6)"/><ellipse fill="#fff" rx="1" ry="1" transform="matrix(55.52248 -6.52782 13.17012 112.01873 219.5 181.5)"/><ellipse fill="#fff" rx="1" ry="1" transform="matrix(2.53993 -90.59053 56.79064 1.59226 39.5 135.8)"/><path fill="#7a0014" d="M153 200l-58-19 72-52z"/><ellipse fill="#f4f8ff" cx="84" cy="122" rx="48" ry="26"/><ellipse fill="#e9a449" rx="1" ry="1" transform="matrix(44.35712 .82658 -.27174 14.58262 128.7 85.6)"/></g></svg>