<svg xmlns="http://www.w3.org/2000/svg" viewBox="0 0 350 350"><filter id="b"><feGaussianBlur stdDeviation="12" /></filter><path fill="#dac7ac" d="M0 0h350v350H0z"/><g filter="url(#b)" transform="translate(.7 .7) scale(1.36719)" fill-opacity=".5"><ellipse fill="#320000" rx="1" ry="1" transform="matrix(78.24572 14.25722 -6.93572 38.06428 148.9 205)"/><ellipse fill="#f3c400" rx="1" ry="1" transform="matrix(84.76113 -1.0356 .40957 33.52174 136 91.2)"/><ellipse fill="#fff" rx="1" ry="1" transform="rotate(90.3 -53.7 83) scale(238.54396 35.0198)"/><ellipse fill="#fdffff" rx="1" ry="1" transform="rotate(178.7 119 72.1) scale(39.77598 90.00183)"/><ellipse fill="#470000" cx="146" cy="215" rx="51" ry="23"/><ellipse fill="#fffff2" cx="132" cy="3" rx="127" ry="56"/><ellipse fill="#8a6073" rx="1" ry="1" transform="matrix(8.1959 -37.27711 20.3993 4.48508 182.2 159)"/><ellipse fill="#fff" rx="1" ry="1" transform="matrix(-5.98778 22.7441 -66.3755 -17.4745 104.4 255)"/></g></svg>