<svg xmlns="http://www.w3.org/2000/svg" viewBox="0 0 350 350"><filter id="b"><feGaussianBlur stdDeviation="12" /></filter><path fill="#dbc4b4" d="M0 0h350v350H0z"/><g filter="url(#b)" transform="translate(.7 .7) scale(1.36719)" fill-opacity=".5"><ellipse fill="#882a00" rx="1" ry="1" transform="rotate(-11.2 943.6 -582.3) scale(84.16212 42.30806)"/><ellipse fill="#2e0000" rx="1" ry="1" transform="matrix(-18.9913 -.63 1.81625 -54.75023 176.5 103.5)"/><ellipse fill="#665529" rx="1" ry="1" transform="rotate(-103.4 126.8 -82.6) scale(29.86542 51.95187)"/><ellipse fill="#fffff5" rx="1" ry="1" transform="matrix(-28.6027 -63.95968 128.49192 -57.46145 34.6 103.5)"/><ellipse fill="#fff" cx="234" cy="165" rx="27" ry="125"/><ellipse fill="#d1962b" rx="1" ry="1" transform="matrix(8.41747 23.9084 -39.93926 14.06149 86.8 150.8)"/><ellipse fill="#fff" rx="1" ry="1" transform="matrix(110.0687 -52.8017 15.80823 32.95333 212.2 232.4)"/><path fill="#870008" d="M68.5 204.2l140-28.4 1 16-107.4 24.5z"/></g></svg>