<svg xmlns="http://www.w3.org/2000/svg" viewBox="0 0 350 350"><filter id="b"><feGaussianBlur stdDeviation="12" /></filter><path fill="#ecd2cf" d="M0 0h350v350H0z"/><g filter="url(#b)" transform="translate(.7 .7) scale(1.36719)" fill-opacity=".5"><ellipse fill="#af4452" cx="135" cy="180" rx="58" ry="58"/><ellipse fill="#c7415a" cx="149" cy="97" rx="37" ry="37"/><ellipse fill="#fff" rx="1" ry="1" transform="matrix(-69.59378 -21.23632 18.22122 -59.71297 58.3 138.5)"/><ellipse fill="#b84517" rx="1" ry="1" transform="rotate(-72.1 202.2 48.2) scale(22.62727 41.7185)"/><ellipse fill="#f6ffff" rx="1" ry="1" transform="matrix(-40.80166 6.63502 -18.65763 -114.73393 226.5 160)"/><ellipse fill="#fff" rx="1" ry="1" transform="rotate(-74.1 126.7 65.8) scale(226.00769 38.34598)"/><ellipse fill="#8a616b" rx="1" ry="1" transform="rotate(141.5 52.9 125.2) scale(40.91839 25.11786)"/><ellipse fill="#fff" rx="1" ry="1" transform="matrix(-121.33145 38.02297 -7.41681 -23.66708 174.1 249)"/></g></svg>