<svg xmlns="http://www.w3.org/2000/svg" viewBox="0 0 350 350"><filter id="b"><feGaussianBlur stdDeviation="12" /></filter><path fill="#dadcc9" d="M0 0h350v350H0z"/><g filter="url(#b)" transform="translate(.7 .7) scale(1.36719)" fill-opacity=".5"><ellipse fill="#4b8200" rx="1" ry="1" transform="matrix(1.05986 99.06208 -26.0097 .27828 127.7 136.9)"/><ellipse fill="#314b32" rx="1" ry="1" transform="matrix(25.24519 31.40763 -39.41595 31.68221 228.2 16)"/><ellipse fill="#fff" rx="1" ry="1" transform="matrix(-74.95757 1.30839 -1.75032 -100.27558 222.8 165.7)"/><ellipse fill="#fff" rx="1" ry="1" transform="matrix(-62.08418 34.16054 -41.0688 -74.63941 31.7 142.5)"/><path fill="#006d39" d="M144.2 161.6l-32.7-4.5 4.3-30.7 32.7 4.5z"/><ellipse fill="#8aa212" cx="126" cy="200" rx="26" ry="26"/><ellipse fill="#ffae4b" cx="127" cy="107" rx="21" ry="21"/><path fill="#f5f7fa" d="M59 86l105-21L11 50z"/></g></svg>