<svg xmlns="http://www.w3.org/2000/svg" viewBox="0 0 350 350"><filter id="b"><feGaussianBlur stdDeviation="12" /></filter><path fill="#d9c5b6" d="M0 0h350v350H0z"/><g filter="url(#b)" transform="translate(.7 .7) scale(1.36719)" fill-opacity=".5"><ellipse fill="#863f12" rx="1" ry="1" transform="matrix(3.60715 -105.01447 40.96832 1.40722 121.6 135)"/><ellipse fill="#fff" rx="1" ry="1" transform="matrix(-49.26968 -9.9548 23.92507 -118.41321 24.8 180.4)"/><ellipse fill="#270000" rx="1" ry="1" transform="rotate(86.5 -64.3 143.4) scale(14.77774 34.989)"/><ellipse fill="#fff" rx="1" ry="1" transform="matrix(-37.47205 -140.8303 47.7381 -12.70213 244 182.1)"/><path fill="#5f4030" d="M157 167h44v53h-44z"/><ellipse fill="#fff" cx="25" cy="149" rx="59" ry="50"/><ellipse fill="#8d6323" rx="1" ry="1" transform="matrix(-10.77455 14.35036 -39.00478 -29.28562 8.2 0)"/><ellipse fill="#62331f" rx="1" ry="1" transform="matrix(-12.75116 6.31811 -17.09508 -34.50116 95.4 118.4)"/></g></svg>