<svg xmlns="http://www.w3.org/2000/svg" viewBox="0 0 350 350"><filter id="b"><feGaussianBlur stdDeviation="12" /></filter><path fill="#e2dad3" d="M0 0h350v350H0z"/><g filter="url(#b)" transform="translate(.7 .7) scale(1.36719)" fill-opacity=".5"><ellipse cx="128" cy="142" rx="64" ry="22"/><ellipse fill="#26110c" rx="1" ry="1" transform="matrix(50.90983 .37481 -.17394 23.62512 134.3 140.2)"/><ellipse fill="#fff" rx="1" ry="1" transform="matrix(-4.62705 95.87197 -45.52385 -2.1971 21.6 167)"/><ellipse fill="#777e82" rx="1" ry="1" transform="rotate(-84.5 174.4 24.7) scale(17.11146 40.09594)"/><ellipse fill="#fff" cx="233" cy="165" rx="42" ry="106"/><ellipse fill="#fff" rx="1" ry="1" transform="matrix(-1.5301 -37.31318 81.26198 -3.33232 102 84)"/><ellipse fill="#eec195" rx="1" ry="1" transform="matrix(1.69281 -26.66238 144.59405 9.18038 1.6 18.1)"/><ellipse fill="#fff" rx="1" ry="1" transform="matrix(152.53405 182.20431 -23.64264 19.79266 44.6 188.1)"/></g></svg>