<svg xmlns="http://www.w3.org/2000/svg" viewBox="0 0 350 350"><filter id="b"><feGaussianBlur stdDeviation="12" /></filter><path fill="#eedcbd" d="M0 0h350v350H0z"/><g filter="url(#b)" transform="translate(.7 .7) scale(1.36719)" fill-opacity=".5"><path fill="#cb4e00" d="M162 50.4l3 178-73 1.2-3-178z"/><ellipse fill="#fff" cx="230" cy="204" rx="69" ry="235"/><ellipse fill="#fff" rx="1" ry="1" transform="matrix(-44.9655 -20.67635 41.25787 -89.72478 27.7 165)"/><ellipse fill="#f48d00" cx="130" cy="93" rx="44" ry="44"/><ellipse fill="#889742" rx="1" ry="1" transform="matrix(4.1271 -94.22679 27.08477 1.1863 0 14.3)"/><ellipse fill="#00ab7c" rx="1" ry="1" transform="matrix(4.2987 10.48456 -25.46867 10.44223 120.9 150.6)"/><ellipse fill="#fa7600" cx="126" cy="196" rx="32" ry="36"/><ellipse fill="#fff" rx="1" ry="1" transform="matrix(-54.01276 7.39883 -3.14025 -22.92437 65.3 39.5)"/></g></svg>