<svg xmlns="http://www.w3.org/2000/svg" viewBox="0 0 350 350"><filter id="b"><feGaussianBlur stdDeviation="12" /></filter><path fill="#ede7d7" d="M0 0h350v350H0z"/><g filter="url(#b)" transform="translate(.7 .7) scale(1.36719)" fill-opacity=".5"><ellipse fill="#867c5c" rx="1" ry="1" transform="matrix(23.53675 17.56304 -34.90104 46.77191 159.7 196.4)"/><ellipse fill="#afa263" rx="1" ry="1" transform="matrix(-17.91521 -3.57981 9.5546 -47.8161 156.7 126.1)"/><ellipse fill="#d1cb6b" rx="1" ry="1" transform="matrix(84.10708 -28.85326 6.46123 18.83445 30.4 10.6)"/><ellipse fill="#fff" rx="1" ry="1" transform="matrix(-52.535 50.38866 -69.83002 -72.80448 58 149.1)"/><ellipse fill="#fff" rx="1" ry="1" transform="matrix(-40.5058 -81.59842 38.59291 -19.15769 237.6 129.3)"/><path d="M119 229l21-3-3 14z"/><ellipse fill="#efe5b1" cx="118" cy="170" rx="33" ry="60"/><ellipse fill="#5c585d" rx="1" ry="1" transform="matrix(-8.37016 21.21088 -8.86061 -3.49654 175.7 186.3)"/></g></svg>