<svg xmlns="http://www.w3.org/2000/svg" viewBox="0 0 350 350"><filter id="b"><feGaussianBlur stdDeviation="12" /></filter><path fill="#cfb593" d="M0 0h350v350H0z"/><g filter="url(#b)" transform="translate(.7 .7) scale(1.36719)" fill-opacity=".5"><ellipse fill="#642400" rx="1" ry="1" transform="matrix(-64.2834 -8.57724 11.31319 -84.78839 153.7 131.2)"/><ellipse fill="#fff" rx="1" ry="1" transform="matrix(7.4175 -206.72265 31.07356 1.11496 242.4 179.5)"/><ellipse fill="#fff" rx="1" ry="1" transform="matrix(31.17066 -6.14443 29.9714 152.04484 22.3 201.4)"/><ellipse fill="#d97600" rx="1" ry="1" transform="matrix(-2.06008 -34.0958 39.44745 -2.38343 71.5 133.9)"/><ellipse fill="#fff9fb" rx="1" ry="1" transform="matrix(-161.44052 3.3817 -.76933 -36.72747 155.6 246.4)"/><ellipse fill="#562500" cx="175" cy="150" rx="43" ry="43"/><ellipse fill="#fffff4" rx="1" ry="1" transform="matrix(10.77486 31.83294 -50.97867 17.25533 181 13.6)"/><path fill="#930000" d="M168.3 233l-3.6-28.6-8.4 3.7-19.7 21z"/></g></svg>