<svg xmlns="http://www.w3.org/2000/svg" viewBox="0 0 350 350"><filter id="b"><feGaussianBlur stdDeviation="12" /></filter><path fill="#e2d0bb" d="M0 0h350v350H0z"/><g filter="url(#b)" transform="translate(.7 .7) scale(1.36719)" fill-opacity=".5"><ellipse fill="#6b0f00" rx="1" ry="1" transform="matrix(-97.18917 26.83266 -10.47765 -37.95054 131.6 166.2)"/><ellipse fill="#fff" cx="80" cy="71" rx="76" ry="76"/><ellipse fill="#5a2700" cx="170" cy="175" rx="43" ry="30"/><ellipse fill="#fff" rx="1" ry="1" transform="matrix(20.0288 -43.3463 171.07442 79.04748 175.1 46.9)"/><ellipse fill="#fff" rx="1" ry="1" transform="matrix(-141.45757 87.10513 -24.04048 -39.04142 78.3 88)"/><ellipse fill="#dd8c25" rx="1" ry="1" transform="matrix(1.12184 36.03084 -58.54067 1.82269 167.8 134.7)"/><ellipse fill="#fff" rx="1" ry="1" transform="matrix(26.12295 .1084 -.52753 127.11638 248.6 185.3)"/><path fill="#8d4100" d="M169 141L27 175l28 38z"/></g></svg>