<svg xmlns="http://www.w3.org/2000/svg" viewBox="0 0 350 350"><filter id="b"><feGaussianBlur stdDeviation="12" /></filter><path fill="#e5d6be" d="M0 0h350v350H0z"/><g filter="url(#b)" transform="translate(.7 .7) scale(1.36719)" fill-opacity=".5"><ellipse fill="#915700" rx="1" ry="1" transform="matrix(-94.31524 14.9047 -4.56168 -28.86578 126.1 156.7)"/><ellipse fill="#fff" cx="134" cy="82" rx="108" ry="40"/><ellipse fill="#797c49" rx="1" ry="1" transform="matrix(-22.86384 8.14674 -17.60586 -49.4109 0 48.9)"/><ellipse fill="#d49b28" cx="70" cy="159" rx="37" ry="37"/><ellipse fill="#fff" rx="1" ry="1" transform="rotate(-2.8 3555.7 -127.8) scale(32.46704 57.71593)"/><path fill="#180d03" d="M169 151l62 3-121 30z"/><ellipse fill="#fff" rx="1" ry="1" transform="matrix(22.43683 1.66622 -7.2789 98.01559 239 184.6)"/><ellipse fill="#f5d482" rx="1" ry="1" transform="matrix(69.5526 -12.95345 3.55547 19.0908 147.9 133.5)"/></g></svg>