<svg xmlns="http://www.w3.org/2000/svg" viewBox="0 0 350 350"><filter id="b"><feGaussianBlur stdDeviation="12" /></filter><path fill="#e7dac1" d="M0 0h350v350H0z"/><g filter="url(#b)" transform="translate(.7 .7) scale(1.36719)" fill-opacity=".5"><ellipse fill="#925200" rx="1" ry="1" transform="matrix(3.35206 34.59612 -110.78122 10.73371 131 164.8)"/><ellipse fill="#fff" rx="1" ry="1" transform="matrix(-216.47096 12.58083 -3.36033 -57.81918 214.4 59)"/><path fill="#2a0d00" d="M99.6 202.8l42.8-16.7 41 5-48.2-35.7z"/><ellipse fill="#151213" cx="211" cy="172" rx="28" ry="8"/><ellipse fill="#f7f0f5" rx="1" ry="1" transform="matrix(-.8551 -33.69212 183.41882 -4.6551 186.2 225.2)"/><ellipse fill="#fdffff" cx="18" cy="105" rx="41" ry="48"/><ellipse fill="#ebbe61" rx="1" ry="1" transform="matrix(-27.3654 30.0742 -24.60646 -22.39016 82 146.7)"/><ellipse fill="#cda65f" rx="1" ry="1" transform="rotate(95 19.8 145.2) scale(27.44559 48.20545)"/></g></svg>