<svg xmlns="http://www.w3.org/2000/svg" viewBox="0 0 350 350"><filter id="b"><feGaussianBlur stdDeviation="12" /></filter><path fill="#eaded3" d="M0 0h350v350H0z"/><g filter="url(#b)" transform="translate(.7 .7) scale(1.36719)" fill-opacity=".5"><ellipse fill="#6b4f1f" rx="1" ry="1" transform="rotate(-65 122 -173.3) scale(53.18779 48.41348)"/><ellipse fill="#855f2e" cx="135" cy="165" rx="16" ry="46"/><ellipse fill="#fff" rx="1" ry="1" transform="matrix(32.64745 -102.71709 60.6105 19.26436 216.5 168.5)"/><ellipse fill="#fff" rx="1" ry="1" transform="matrix(-1.2614 80.29644 -55.36002 -.86966 55.2 139.6)"/><ellipse fill="#e3b497" rx="1" ry="1" transform="matrix(27.4995 -27.97061 42.99467 42.27051 150.7 9.9)"/><ellipse fill="#95999d" cx="152" cy="119" rx="12" ry="37"/><ellipse fill="#65573b" rx="1" ry="1" transform="matrix(-4.40092 -12.20843 24.22589 -8.733 220.1 26.6)"/><ellipse fill="#fff" rx="1" ry="1" transform="matrix(-20.44611 35.55688 -64.43133 -37.04966 225.7 122.8)"/></g></svg>