<svg xmlns="http://www.w3.org/2000/svg" viewBox="0 0 350 350"><filter id="b"><feGaussianBlur stdDeviation="12" /></filter><path fill="#e6ded7" d="M0 0h350v350H0z"/><g filter="url(#b)" transform="translate(.7 .7) scale(1.36719)" fill-opacity=".5"><ellipse fill="#82645c" rx="1" ry="1" transform="matrix(6.73252 47.9044 -56.82354 7.98603 121.5 122.8)"/><ellipse fill="#3f3731" rx="1" ry="1" transform="matrix(-14.23554 5.61931 -12.4228 -31.47098 0 49.6)"/><path fill="#6a2520" d="M185.2 139.6l-17-6.1 10.6-29.1 17 6.1z"/><ellipse fill="#fff" cx="255" cy="168" rx="83" ry="83"/><ellipse fill="#fff" cx="20" cy="162" rx="54" ry="54"/><path fill="#363e45" d="M100.2 218l70.8-5 .8 11-70.8 5z"/><path fill="#d3dee2" d="M87 141h85v76H87z"/><path fill="#230000" d="M84.8 148.4l-15 .2-.6-33 15-.2z"/></g></svg>