<svg xmlns="http://www.w3.org/2000/svg" viewBox="0 0 350 350"><filter id="b"><feGaussianBlur stdDeviation="12" /></filter><path fill="#ece1da" d="M0 0h350v350H0z"/><g filter="url(#b)" transform="translate(.7 .7) scale(1.36719)" fill-opacity=".5"><ellipse fill="#260000" cx="129" cy="163" rx="40" ry="32"/><path fill="#6f000a" d="M101 136h63v49h-63z"/><path fill="#fff" d="M82.3 67.3l23.3 165.4-114 16-23.2-165.4z"/><ellipse fill="#fff" rx="1" ry="1" transform="matrix(15.81455 77.83176 -55.9943 11.37742 228.7 164.2)"/><ellipse fill="#e3ba8e" rx="1" ry="1" transform="matrix(-3.7428 25.656 -92.08572 -13.43385 46 18.6)"/><ellipse fill="#fff" rx="1" ry="1" transform="matrix(7.1204 -37.74835 65.45514 12.3467 124.7 94.9)"/><ellipse fill="#e1b683" rx="1" ry="1" transform="matrix(5.92552 -19.95272 27.4222 8.1438 249.9 40)"/><path fill="#a29096" d="M184 175l-39 27-41-13z"/></g></svg>