<svg xmlns="http://www.w3.org/2000/svg" viewBox="0 0 350 350"><filter id="b"><feGaussianBlur stdDeviation="12" /></filter><path fill="#ecddc0" d="M0 0h350v350H0z"/><g filter="url(#b)" transform="translate(.7 .7) scale(1.36719)" fill-opacity=".5"><ellipse fill="#d47400" rx="1" ry="1" transform="matrix(-9.39187 69.46375 -41.51916 -5.61361 129.1 133.1)"/><ellipse fill="#fff" rx="1" ry="1" transform="matrix(38.98308 11.98608 -41.34813 134.47907 57.1 83.9)"/><ellipse fill="#fff" cx="212" cy="120" rx="41" ry="65"/><ellipse fill="#777d5d" rx="1" ry="1" transform="matrix(11.7613 41.84216 -21.46547 6.03367 0 66)"/><ellipse fill="#daa60a" cx="124" cy="150" rx="39" ry="57"/><ellipse fill="#fff" rx="1" ry="1" transform="matrix(21.87541 -24.77121 44.76013 39.52758 142.4 25.6)"/><path fill="#764b56" d="M148 167.6l16 1.4-52.2 36 58.8 7z"/><path fill="#b34b00" d="M161 172l-9-96 21 38z"/></g></svg>