<svg xmlns="http://www.w3.org/2000/svg" viewBox="0 0 350 350"><filter id="b"><feGaussianBlur stdDeviation="12" /></filter><path fill="#efe4c1" d="M0 0h350v350H0z"/><g filter="url(#b)" transform="translate(.7 .7) scale(1.36719)" fill-opacity=".5"><ellipse fill="#d59d00" cx="129" cy="135" rx="39" ry="104"/><ellipse fill="#fff" cx="221" cy="105" rx="52" ry="139"/><ellipse fill="#fff" rx="1" ry="1" transform="matrix(-19.7712 108.69738 -42.24568 -7.68416 41.2 138.4)"/><ellipse fill="#180013" rx="1" ry="1" transform="matrix(-42.26827 -.15523 .03054 -8.31504 128.9 59.3)"/><ellipse fill="#b4b141" rx="1" ry="1" transform="matrix(-45.64512 46.5402 -22.79553 -22.35712 0 19.5)"/><ellipse fill="#ab6b19" rx="1" ry="1" transform="matrix(4.98227 -22.3294 35.07998 7.82726 130.8 212)"/><ellipse fill="#ffffeb" rx="1" ry="1" transform="rotate(177.9 74.4 12.3) scale(78.38763 30.05364)"/><ellipse fill="#fffc53" rx="1" ry="1" transform="matrix(38.61083 14.36367 -8.50631 22.86573 122.8 94.2)"/></g></svg>