<svg xmlns="http://www.w3.org/2000/svg" viewBox="0 0 350 350"><filter id="b"><feGaussianBlur stdDeviation="12" /></filter><path fill="#e1caac" d="M0 0h350v350H0z"/><g filter="url(#b)" transform="translate(.7 .7) scale(1.36719)" fill-opacity=".5"><ellipse fill="#ab660a" rx="1" ry="1" transform="rotate(165.1 58.9 90) scale(49.08483 118.81044)"/><ellipse fill="#fff" cx="255" cy="137" rx="80" ry="80"/><ellipse fill="#fff" rx="1" ry="1" transform="matrix(4.39063 -89.14394 40.30667 1.98524 33.6 134.7)"/><ellipse fill="#ad4000" rx="1" ry="1" transform="matrix(-15.71929 -22.2835 31.88774 -22.49433 145.2 96.9)"/><ellipse fill="#feffff" rx="1" ry="1" transform="rotate(133 -11.4 83.5) scale(35.41346 81.25487)"/><ellipse fill="#fff" rx="1" ry="1" transform="rotate(-106.5 153 -26.4) scale(203.90804 32.0145)"/><ellipse fill="#e3992b" cx="105" cy="95" rx="37" ry="37"/><path fill="#9d8912" d="M190.1 90.5l-5.6 92.8-8-103.3 16.8 19.9z"/></g></svg>