<svg xmlns="http://www.w3.org/2000/svg" viewBox="0 0 350 350"><filter id="b"><feGaussianBlur stdDeviation="12" /></filter><path fill="#e5d8c9" d="M0 0h350v350H0z"/><g filter="url(#b)" transform="translate(.7 .7) scale(1.36719)" fill-opacity=".5"><ellipse fill="#2e0000" rx="1" ry="1" transform="rotate(98.7 7 108) scale(14.82102 62.0696)"/><ellipse fill="#684c2c" rx="1" ry="1" transform="matrix(1.70952 -12.4935 93.54197 12.79958 136.9 198.5)"/><path fill="#7a0400" d="M98 91l-57 33 181 20z"/><ellipse fill="#fff" rx="1" ry="1" transform="matrix(192.28719 65.9975 -15.74472 45.87308 169.1 68.4)"/><ellipse fill="#fff" cx="21" cy="110" rx="28" ry="97"/><ellipse fill="#fff" rx="1" ry="1" transform="rotate(65.3 25 217.2) scale(158.78395 25.85792)"/><path fill="#dac98f" d="M128 123l125 79-211-25z"/><ellipse fill="#bf7948" rx="1" ry="1" transform="matrix(-.27366 17.44894 -31.31954 -.4912 171.2 140.4)"/></g></svg>