<svg xmlns="http://www.w3.org/2000/svg" viewBox="0 0 350 350"><filter id="b"><feGaussianBlur stdDeviation="12" /></filter><path fill="#d1b794" d="M0 0h350v350H0z"/><g filter="url(#b)" transform="translate(.7 .7) scale(1.36719)" fill-opacity=".5"><ellipse fill="#642900" cx="158" cy="140" rx="69" ry="82"/><ellipse fill="#fff" cx="245" cy="141" rx="21" ry="255"/><path fill="#fff" d="M-13 13l-3 151L183-6z"/><ellipse fill="#e4b539" rx="1" ry="1" transform="matrix(45.00553 -48.69463 41.99839 38.8166 97.2 123.4)"/><ellipse fill="#592700" rx="1" ry="1" transform="matrix(-36.3735 34.88093 -23.93163 -24.95568 171 170.7)"/><ellipse fill="#fffffc" rx="1" ry="1" transform="matrix(31.27405 -14.11467 56.00971 124.10145 23 221.5)"/><ellipse fill="#fffffc" rx="1" ry="1" transform="matrix(3.33681 31.27921 -155.18134 16.55448 210.5 251.3)"/><ellipse fill="#7d4212" rx="1" ry="1" transform="rotate(5.1 -2223.4 1261.7) scale(30.94847 14.5039)"/></g></svg>