<svg xmlns="http://www.w3.org/2000/svg" viewBox="0 0 350 350"><filter id="b"><feGaussianBlur stdDeviation="12" /></filter><path fill="#e8e0d6" d="M0 0h350v350H0z"/><g filter="url(#b)" transform="translate(.7 .7) scale(1.36719)" fill-opacity=".5"><ellipse fill="#411900" rx="1" ry="1" transform="matrix(-13.63346 -31.45948 42.87123 -18.57893 122.8 105.1)"/><path fill="#3e3530" d="M-25.3 31.2L3 18.6l22.3 50.2L-3 81.4z"/><ellipse fill="#fff" cx="255" cy="132" rx="83" ry="83"/><ellipse fill="#5a3d2c" rx="1" ry="1" transform="matrix(10.97163 -11.01 31.41086 31.3014 148 92.3)"/><ellipse fill="#fff" rx="1" ry="1" transform="rotate(-29.6 335 13.6) scale(55.79406 80.59715)"/><path fill="#180000" d="M90 97l-18 12 7 28z"/><path fill="#260000" d="M144 71.5l-10.9 13-19.1-16 10.9-13z"/><ellipse fill="#fff8ef" rx="1" ry="1" transform="matrix(4.06993 -25.99005 27.73858 4.34375 171.2 64)"/></g></svg>