<svg xmlns="http://www.w3.org/2000/svg" viewBox="0 0 350 350"><filter id="b"><feGaussianBlur stdDeviation="12" /></filter><path fill="#dcbfab" d="M0 0h350v350H0z"/><g filter="url(#b)" transform="translate(.7 .7) scale(1.36719)" fill-opacity=".5"><ellipse fill="#700" rx="1" ry="1" transform="matrix(51.7924 -25.48502 18.32906 37.24956 139.5 196.3)"/><ellipse fill="#b75c00" rx="1" ry="1" transform="matrix(-.56994 -29.68287 78.71907 -1.51148 132.8 84.8)"/><ellipse fill="#fff" rx="1" ry="1" transform="matrix(7.6963 -112.89352 38.6815 2.63704 230 160.5)"/><ellipse fill="#fff" rx="1" ry="1" transform="matrix(44.15213 .92486 -1.74472 83.29208 19.7 151)"/><ellipse fill="#7c0000" rx="1" ry="1" transform="matrix(-40.60842 9.2485 -4.38082 -19.23539 146.1 207.3)"/><ellipse fill="#fffcc0" cx="86" cy="30" rx="67" ry="44"/><ellipse fill="#6e1200" rx="1" ry="1" transform="matrix(4.51981 7.86288 -31.91623 18.3464 157.7 93.4)"/><ellipse fill="#a3909b" cx="161" cy="150" rx="35" ry="35"/></g></svg>