<svg xmlns="http://www.w3.org/2000/svg" viewBox="0 0 350 350"><filter id="b"><feGaussianBlur stdDeviation="12" /></filter><path fill="#cbaf8b" d="M0 0h350v350H0z"/><g filter="url(#b)" transform="translate(.7 .7) scale(1.36719)" fill-opacity=".5"><ellipse fill="#964300" cx="132" cy="94" rx="80" ry="80"/><ellipse fill="#fff" rx="1" ry="1" transform="matrix(-21.83113 -117.79023 44.3223 -8.21465 26.4 180.6)"/><ellipse fill="#fff" cx="230" cy="178" rx="33" ry="112"/><ellipse fill="#855230" cx="171" cy="255" rx="24" ry="235"/><ellipse fill="#fff" rx="1" ry="1" transform="matrix(-30.07773 24.1271 -60.03058 -74.8363 36 155.6)"/><ellipse fill="#fff" rx="1" ry="1" transform="matrix(-23.48727 100.55129 -30.5553 -7.13726 231.5 160.6)"/><ellipse fill="#484d0d" rx="1" ry="1" transform="matrix(19.97273 5.02717 -8.57315 34.06077 199.2 83.2)"/><ellipse fill="#4b5241" rx="1" ry="1" transform="matrix(18.0004 -35.70502 18.60863 9.3814 248.4 3.4)"/></g></svg>