<svg xmlns="http://www.w3.org/2000/svg" viewBox="0 0 350 350"><filter id="b"><feGaussianBlur stdDeviation="12" /></filter><path fill="#dfcaaa" d="M0 0h350v350H0z"/><g filter="url(#b)" transform="translate(.7 .7) scale(1.36719)" fill-opacity=".5"><ellipse fill="#c05e00" cx="138" cy="116" rx="63" ry="63"/><ellipse fill="#8d6224" rx="1" ry="1" transform="matrix(-57.33487 -11.72576 16.23283 -79.37283 97.7 247.8)"/><ellipse fill="#fff" cx="237" cy="109" rx="44" ry="255"/><ellipse fill="#fff" rx="1" ry="1" transform="matrix(-86.05789 203.72755 -32.52522 -13.7392 45.3 95)"/><ellipse fill="#ffd" rx="1" ry="1" transform="matrix(-.4711 31.64009 -73.29042 -1.09124 162.9 27.3)"/><ellipse fill="#9b3e0b" cx="186" cy="114" rx="21" ry="32"/><path fill="#6a7144" d="M-17.9 22.7l24.8-8 21 64.6-24.8 8z"/><ellipse fill="#ffebb9" rx="1" ry="1" transform="matrix(22.32055 -16.22107 9.67157 13.3083 143.7 128.4)"/></g></svg>