<svg xmlns="http://www.w3.org/2000/svg" viewBox="0 0 350 350"><filter id="b"><feGaussianBlur stdDeviation="12" /></filter><path fill="#e3d4c1" d="M0 0h350v350H0z"/><g filter="url(#b)" transform="translate(.7 .7) scale(1.36719)" fill-opacity=".5"><path fill="#773e00" d="M37.3 148.6l181.2-41.8 12.2 52.6-181.2 41.8z"/><ellipse fill="#9f5f00" cx="80" cy="146" rx="29" ry="25"/><ellipse fill="#fff" rx="1" ry="1" transform="matrix(68.62445 -137.03986 30.6366 15.34166 15.9 150.9)"/><ellipse fill="#fff" rx="1" ry="1" transform="matrix(-26.51918 210.7237 -28.40668 -3.57493 255 111.7)"/><ellipse fill="#fcffff" cx="95" cy="85" rx="41" ry="41"/><ellipse fill="#fffbf9" rx="1" ry="1" transform="matrix(10.58965 37.3159 -101.8044 28.89045 172.5 210)"/><ellipse fill="#fd7" cx="156" cy="124" rx="56" ry="17"/><ellipse fill="#473418" rx="1" ry="1" transform="matrix(-3.67653 -10.1563 64.03574 -23.18061 164.7 162.3)"/></g></svg>