<svg xmlns="http://www.w3.org/2000/svg" viewBox="0 0 350 350"><filter id="c"><feGaussianBlur stdDeviation="55" /></filter><path fill="#dbc1b3" d="M0 0h350v350H0z"/><g filter='url(#c)' fill-opacity='.5'><ellipse fill="#740000" fill-opacity=".5" rx="1" ry="1" transform="matrix(-71.61981 15.61564 -9.86668 -45.25269 193 268.8)"/><ellipse fill="#991c00" fill-opacity=".5" rx="1" ry="1" transform="matrix(92.65197 1.2731 -.5424 39.4745 183.6 135.4)"/><ellipse fill="#fff" fill-opacity=".5" rx="1" ry="1" transform="matrix(-.93755 215.851 -53.02582 -.23032 46 275)"/><ellipse fill="#fff" fill-opacity=".5" rx="1" ry="1" transform="matrix(-54.078 -3.59555 10.6696 -160.47339 317.5 255.2)"/><ellipse fill="#7e5e15" fill-opacity=".5" rx="1" ry="1" transform="rotate(-148.7 8.3 -2) scale(75.33039 37.14849)"/><ellipse fill="#6e0002" fill-opacity=".5" rx="1" ry="1" transform="matrix(-5.80462 -29.11988 48.98356 -9.76415 206.3 288.9)"/><ellipse fill="#fff" fill-opacity=".5" rx="1" ry="1" transform="rotate(-9.3 1466.4 -1877.7) scale(51.06163 97.96392)"/><path fill="#a2929e" fill-opacity=".5" d="M181.2 167.5h84.7v88.8h-84.7z"/></g></svg>