<svg xmlns="http://www.w3.org/2000/svg" viewBox="0 0 350 350"><filter id="b"><feGaussianBlur stdDeviation="12" /></filter><path fill="#e5d2b9" d="M0 0h350v350H0z"/><g filter="url(#b)" transform="translate(.7 .7) scale(1.36719)" fill-opacity=".5"><ellipse fill="#9a4600" rx="1" ry="1" transform="matrix(-72.04036 31.84459 -9.41921 -21.3086 154.3 166.1)"/><ellipse fill="#836537" rx="1" ry="1" transform="matrix(27.09322 -12.8069 13.33427 28.20887 21.7 22.9)"/><ellipse fill="#fff" rx="1" ry="1" transform="matrix(-19.19096 -21.4535 75.88352 -67.88065 38.7 118.1)"/><ellipse fill="#f6ffff" cx="215" cy="41" rx="72" ry="53"/><ellipse fill="#f89000" rx="1" ry="1" transform="matrix(-54.87144 14.70276 -3.49006 -13.02507 134.5 111.5)"/><ellipse fill="#fff" rx="1" ry="1" transform="matrix(5.9539 -117.53185 22.59615 1.14467 245.6 183.1)"/><path fill="#aa580b" d="M56 157h88v25H56z"/><ellipse fill="#fff" rx="1" ry="1" transform="rotate(73.4 -31.8 240.5) scale(25.76372 73.53587)"/></g></svg>