<svg xmlns="http://www.w3.org/2000/svg" viewBox="0 0 350 350"><filter id="b"><feGaussianBlur stdDeviation="12" /></filter><path fill="#e5d6cb" d="M0 0h350v350H0z"/><g filter="url(#b)" transform="translate(.7 .7) scale(1.36719)" fill-opacity=".5"><ellipse fill="#2d0000" rx="1" ry="1" transform="matrix(2.29265 -81.2807 20.24781 .57112 128.5 145.1)"/><ellipse fill="#634d18" rx="1" ry="1" transform="matrix(6.44396 33.40448 -45.85738 8.8462 231.4 24.1)"/><ellipse fill="#fff" rx="1" ry="1" transform="matrix(-60.75918 -8.73628 12.83287 -89.25015 208.6 160.2)"/><ellipse fill="#fff" rx="1" ry="1" transform="matrix(-4.93377 -91.09949 78.97935 -4.27737 33 138.3)"/><path fill="#750000" d="M149 210L124 58l-18 151z"/><ellipse fill="#fffdf2" cx="184" cy="223" rx="134" ry="12"/><ellipse fill="#ffffef" rx="1" ry="1" transform="matrix(21.61907 -6.17844 8.84455 30.94812 160.3 77.1)"/><ellipse fill="#fff" cx="231" cy="145" rx="84" ry="76"/></g></svg>