<svg xmlns="http://www.w3.org/2000/svg" viewBox="0 0 14 44" width="14" height="44" xmlns:xlink="http://www.w3.org/1999/xlink">
    <path fill="#ffffff" d="M 12.5 15 h -1.8 c -0.3 -1.9 -2 -3 -3.7 -3 s -3.4 1.1 -3.7 3 H 1.5 c -0.8 0 -1.5 0.7 -1.5 1.5 v 11 c 0 0.8 0.7 1.5 1.5 1.5 h 11 c 0.8 0 1.5 -0.7 1.5 -1.5 v -11 c 0 -0.8 -0.7 -1.5 -1.5 -1.5 z M 7 13 c 1.2 0 2.4 0.8 2.7 2 H 4.3 c 0.3 -1.3 1.5 -2 2.7 -2 z m 6 14.5 c 0 0.3 -0.2 0.5 -0.5 0.5 h -11 c -0.3 0 -0.5 -0.2 -0.5 -0.5 v -11 c 0 -0.3 0.2 -0.5 0.5 -0.5 h 11 c 0.3 0 0.5 0.2 0.5 0.5 v 11 z"/>
</svg>