<svg width="95px" height="70px" viewBox="0 0 95 70" version="1.1" xmlns="http://www.w3.org/2000/svg" xmlns:xlink="http://www.w3.org/1999/xlink">
    <defs></defs>
    <g id="Page-1___YpNSHYiP" stroke="none" stroke-width="1" fill="none" fill-rule="evenodd">
        <g id="Artboard-4___YpNSHYiP" transform="translate(-93.000000, -258.000000)">
            <g id="Group-6___YpNSHYiP" transform="translate(93.000000, 258.000000)">
                <path d="M92.2115,2.8171 C80.1675,20.3731 59.4365,17.6981 59.4365,17.6981 C59.4365,17.6981 66.7295,17.6301 71.3245,13.3071 C71.5795,13.0191 71.4235,12.5891 71.0655,12.7011 C64.6025,14.7401 49.1065,3.8901 38.0185,2.0421 C34.3345,1.4271 10.3005,-4.8759 0.3305,22.1021 C0.1545,22.5751 0.2055,23.1691 0.9055,22.6201 C2.7415,21.1761 6.7455,18.5581 11.6085,18.5581 C-7.4885,29.5271 2.0735,53.0501 11.8655,60.8821 C25.0655,71.4421 49.0445,72.6271 63.3155,60.1781 C63.6925,59.8491 63.6005,59.4091 63.1965,59.5181 C54.9915,61.7181 49.2885,59.7631 49.2885,59.7631 C49.2885,59.7631 65.6315,59.1621 79.8265,47.3781 C93.6625,35.8871 96.0545,14.3431 92.9775,2.9071 C92.8985,2.6121 92.3875,2.5631 92.2115,2.8171" id="Fill-7___YpNSHYiP" fill="#AC162C"></path>
                <path d="M17.5528,42.9587 C17.4988,43.3037 17.4828,43.6097 17.5058,43.8797 C17.5348,44.2177 17.6538,44.5107 17.8608,44.7557 C18.0688,45.0007 18.4348,45.1007 18.9568,45.0547 C19.3948,45.0167 19.7548,44.8797 20.0308,44.6447 C20.3088,44.4087 20.5218,44.1147 20.6678,43.7617 C20.8168,43.4087 20.9068,43.0187 20.9378,42.5907 C20.9688,42.1647 20.9648,41.7307 20.9278,41.2907 C20.8908,40.8547 20.7448,40.5267 20.4868,40.3107 C20.2308,40.0957 19.7948,39.8777 19.1808,39.6587 C18.5518,39.4407 18.0298,39.2067 17.6168,38.9517 C17.2048,38.6997 16.8728,38.4307 16.6188,38.1467 C16.3628,37.8617 16.1768,37.5597 16.0548,37.2387 C15.9338,36.9197 15.8568,36.5727 15.8268,36.2017 C15.7458,35.2557 15.7858,34.3887 15.9458,33.6037 C16.1088,32.8177 16.3898,32.1337 16.7898,31.5547 C17.1908,30.9777 17.6978,30.5127 18.3138,30.1637 C18.9298,29.8117 19.6578,29.6007 20.5028,29.5297 C21.1768,29.4707 21.7608,29.5087 22.2578,29.6467 C22.7538,29.7807 23.1668,29.9807 23.4968,30.2507 C23.8238,30.5207 24.0738,30.8477 24.2438,31.2357 C24.4128,31.6187 24.5168,32.0367 24.5558,32.4927 C24.5758,32.7287 24.5848,32.9697 24.5798,33.2177 C24.5758,33.4647 24.5398,33.7087 24.4778,33.9527 L21.7628,34.4157 C21.8178,34.0367 21.8328,33.7137 21.8088,33.4417 C21.7778,33.0877 21.6538,32.7857 21.4378,32.5307 C21.2198,32.2797 20.8498,32.1747 20.3268,32.2207 C19.9228,32.2557 19.5978,32.3927 19.3548,32.6347 C19.1128,32.8767 18.9288,33.1567 18.8028,33.4697 C18.6778,33.7897 18.5998,34.1187 18.5698,34.4597 C18.5398,34.8037 18.5348,35.0917 18.5538,35.3287 C18.5848,35.6817 18.7428,35.9927 19.0298,36.2557 C19.3138,36.5207 19.8618,36.7867 20.6658,37.0577 C21.7488,37.4237 22.5058,37.8517 22.9308,38.3427 C23.3538,38.8327 23.5998,39.4577 23.6648,40.2177 C23.7528,41.2287 23.7378,42.1697 23.6278,43.0367 C23.5148,43.9027 23.2708,44.6707 22.8938,45.3397 C22.5178,46.0107 22.0058,46.5517 21.3518,46.9657 C20.6998,47.3777 19.8848,47.6267 18.9068,47.7117 C17.5728,47.8247 16.5708,47.5927 15.9028,47.0127 C15.2328,46.4347 14.8568,45.6607 14.7738,44.7017 C14.7398,44.2977 14.7518,43.8877 14.8208,43.4737 L17.5528,42.9587 Z" id="Fill-52___YpNSHYiP" fill="#FFFFFF"></path>
                <path d="M30.3819,31.4314 L29.7559,37.1924 L30.7429,37.1114 C31.6699,37.0294 32.3579,36.6444 32.8089,35.9514 C33.2599,35.2594 33.4309,34.2784 33.3239,33.0124 C33.2719,32.4224 33.0859,31.9854 32.7629,31.6984 C32.4419,31.4114 31.9499,31.2974 31.2919,31.3544 L30.3819,31.4314 Z M31.7049,28.7164 C32.9859,28.6074 33.9889,28.8094 34.7129,29.3274 C35.4369,29.8414 35.8559,30.7574 35.9689,32.0724 C36.0609,33.1334 36.0289,34.1214 35.8769,35.0234 C35.7269,35.9274 35.4379,36.7144 35.0099,37.3804 C34.5829,38.0454 34.0169,38.5834 33.3129,38.9924 C32.6089,39.4014 31.7519,39.6494 30.7399,39.7374 L29.4749,39.8444 L28.7639,46.7114 L26.0319,46.9464 L27.9339,29.0424 L31.7049,28.7164 Z" id="Fill-54___YpNSHYiP" fill="#FFFFFF"></path>
                <polygon id="Fill-56___YpNSHYiP" fill="#FFFFFF" points="36.9839 46.0036 38.8849 28.1016 41.6439 27.8626 39.7409 45.7656"></polygon>
                <path d="M48.8379,27.0915 C50.0689,26.9875 51.0129,27.1835 51.6679,27.6915 C52.3229,28.1945 52.7219,28.8815 52.8639,29.7515 C52.8829,29.9735 52.8969,30.1915 52.9079,30.4005 C52.9169,30.6135 52.9059,30.8365 52.8759,31.0785 L50.1849,31.7675 C50.2119,31.4935 50.2149,31.2555 50.1959,31.0525 C50.1579,30.5965 50.0189,30.2485 49.7759,30.0055 C49.5349,29.7645 49.2129,29.6605 48.8069,29.6945 C48.4859,29.7205 48.2239,29.8115 48.0149,29.9655 C47.8069,30.1205 47.6419,30.3085 47.5149,30.5325 C47.3889,30.7535 47.2979,30.9925 47.2329,31.2435 C47.1679,31.4965 47.1219,31.7355 47.0899,31.9565 L46.1189,41.1135 C46.1009,41.3035 46.0959,41.4895 46.1039,41.6745 C46.1109,41.8625 46.1509,42.0295 46.2249,42.1745 C46.2949,42.3215 46.4109,42.4365 46.5729,42.5145 C46.7289,42.5945 46.9539,42.6225 47.2399,42.5975 C47.7119,42.5575 48.1439,42.3635 48.5299,42.0165 C48.9139,41.6665 49.1319,41.0935 49.1819,40.2895 C49.6289,40.3365 50.0739,40.3835 50.5209,40.4295 C50.9669,40.4755 51.4119,40.5255 51.8579,40.5705 C51.7669,41.8835 51.3889,42.9625 50.7219,43.8005 C50.0539,44.6405 49.0019,45.1205 47.5699,45.2445 C46.3059,45.3555 45.3239,45.1585 44.6269,44.6585 C43.9289,44.1575 43.5289,43.4005 43.4249,42.3915 C43.4079,42.1875 43.3959,41.9725 43.3959,41.7415 C43.3919,41.5125 43.4059,41.2795 43.4359,41.0385 L44.3679,32.3205 C44.4289,31.6515 44.5449,31.0155 44.7159,30.4145 C44.8839,29.8145 45.1349,29.2795 45.4689,28.8105 C45.8019,28.3385 46.2399,27.9515 46.7829,27.6515 C47.3269,27.3485 48.0109,27.1625 48.8379,27.0915" id="Fill-58___YpNSHYiP" fill="#FFFFFF"></path>
                <path d="M58.3907,33.6101 C58.8097,32.3681 59.2357,31.1341 59.6647,29.9061 C60.0957,28.6801 60.5187,27.4471 60.9387,26.2031 L63.8997,25.9491 L59.3327,36.8431 L58.5567,44.1471 L55.8247,44.3821 L56.6247,37.0761 C56.2397,35.3591 55.8527,33.6411 55.4687,31.9241 C55.0817,30.2101 54.6957,28.4921 54.3107,26.7741 L57.1207,26.5311 C57.2817,27.4341 57.4257,28.2191 57.5497,28.8791 C57.6757,29.5401 57.7777,30.1351 57.8577,30.6731 C57.9547,31.2111 58.0287,31.7261 58.0797,32.2221 C58.1307,32.7181 58.1847,33.1861 58.2387,33.6251 L58.3907,33.6101 Z" id="Fill-60___YpNSHYiP" fill="#FFFFFF"></path>
                <path d="M67.0445,38.5749 L64.7915,38.7689 L65.9435,25.7739 L68.6515,25.5419 L67.0445,38.5749 Z M64.0925,43.6699 L64.3865,40.8679 L67.0175,40.6419 L66.7235,43.4439 L64.0925,43.6699 Z" id="Fill-62___YpNSHYiP" fill="#FFFFFF"></path>
            </g>
        </g>
    </g>
</svg>